<?xml version="1.0" encoding="UTF-8"?>
<svg version="1.1" xmlns="http://www.w3.org/2000/svg" width="512" height="512">
<path d="M0 0 C2.5575 0.020625 5.115 0.04125 7.75 0.0625 C7.75 6.0025 7.75 11.9425 7.75 18.0625 C6.08839844 18.16046875 4.42679688 18.2584375 2.71484375 18.359375 C-79.16360092 22.87951261 -79.16360092 22.87951261 -148.8125 61.75 C-152.24152909 66.13757613 -153.88656766 70.11730021 -153.671875 75.828125 C-152.01993609 84.57728295 -145.59243287 90.05998569 -138.609375 94.9140625 C-70.68429889 138.35451815 32.15386296 135.80417368 138.71484375 119.69140625 C182.36562951 109.98184934 182.36562951 109.98184934 216.3125 83.125 C219.22722769 77.75832868 219.91103567 74.10193659 218.1875 68.10546875 C212.70176726 54.73399519 196.47665152 47.28741903 183.9296875 41.96484375 C143.9006373 25.75025074 100.54758157 20.585864 57.75 18.0625 C57.75 12.1225 57.75 6.1825 57.75 0.0625 C69.69313725 -0.09658471 81.21206891 0.34152317 93.0625 1.75 C94.2154657 1.88296478 94.2154657 1.88296478 95.39172363 2.01861572 C139.2759167 7.09727214 199.77125733 14.49691184 230.21484375 50.9140625 C237.09741908 60.54616538 238.62531774 69.37891105 237.75 81.0625 C234.48497308 95.7239266 222.93946934 105.40273439 210.96972656 113.22607422 C145.65524676 154.64372028 46.09731571 154.02391694 -82.25 137.0625 C-110.8109238 130.54381355 -149.06147626 120.50793876 -166.375 94.375 C-167.36787602 92.62330063 -168.3308061 90.85396199 -169.25 89.0625 C-169.60707031 88.42183594 -169.96414062 87.78117187 -170.33203125 87.12109375 C-173.71842955 79.96172199 -173.31766075 70.73987092 -171.59375 63.1875 C-164.88810773 44.6891765 -146.3934069 34.08104485 -129.58203125 26.03515625 C-91.1890208 8.25047818 -42.34793988 -0.49537445 0 0 Z " fill="#000000" transform="translate(223.25,308.9375)"/>
<path d="M0 0 C31.40264236 4.18701898 53.25846728 20.30462435 76.52441406 40.72167969 C79.38798913 43.20243399 82.35878783 45.544759 85.3359375 47.88671875 C87.36165302 49.49362798 89.36102284 51.12005152 91.3515625 52.76953125 C109.27352395 67.53246494 127.894728 81.29832374 152.03369141 80.19677734 C157.67491159 79.63223507 162.36571744 77.08952171 167 74 C171.86581934 73.4506333 173.8976444 73.26509627 178 76 C179.99827873 78.99741809 180.98596468 81.06565421 180.7265625 84.7109375 C179.02725624 90.06466584 174.77092908 93.98668243 171 98 C170.54512207 98.50112305 170.09024414 99.00224609 169.62158203 99.51855469 C155.14149852 115.41884883 135.66239839 126.85035316 113.80053711 128.12860107 C101.20898879 128.52893126 89.18652517 127.48446733 76.77716064 125.43405151 C52.01071515 121.38078529 28.66999989 117.88963862 6 131 C5.2678125 131.556875 4.535625 132.11375 3.78125 132.6875 C2 134 2 134 0 134 C0 89.78 0 45.56 0 0 Z " fill="#000000" transform="translate(281,80)"/>
<path d="M0 0 C3.12150986 1.11903184 4.23499348 3.03137728 6.0703125 5.7421875 C6.57170916 8.44774818 6.57170916 8.44774818 6.57367706 11.4347229 C6.58410805 12.57718161 6.59453904 13.71964031 6.60528612 14.89671898 C6.59636323 16.14719332 6.58744035 17.39766766 6.57824707 18.68603516 C6.58285648 20.03147876 6.58920967 21.37691732 6.59715605 22.72234535 C6.61386739 26.41844561 6.60559507 30.1141332 6.59321117 33.81023502 C6.58417029 37.79667532 6.59812561 41.78304408 6.60913086 45.76947021 C6.62693099 53.57843884 6.62306948 61.38725382 6.6114803 69.1962285 C6.60245211 75.54190362 6.60121931 81.88753564 6.60557556 88.23321533 C6.60618849 89.13586203 6.60680143 90.03850873 6.60743293 90.96850836 C6.60871181 92.80213405 6.61000867 94.63575972 6.6113233 96.46938539 C6.62273347 113.66921513 6.60960854 130.86895965 6.58812183 148.06877542 C6.57025045 162.83170026 6.57335443 177.5944993 6.59179688 192.35742188 C6.61319587 209.49508677 6.62163479 226.63267693 6.60934782 243.77035332 C6.6080736 245.59728876 6.60681612 247.42422421 6.60557556 249.25115967 C6.60495846 250.15008112 6.60434136 251.04900256 6.60370556 251.97516406 C6.60024974 258.31429182 6.60608598 264.65337224 6.61549377 270.99249268 C6.62670436 278.71625506 6.62369359 286.43985482 6.6023708 294.16359854 C6.59184763 298.10551246 6.58775991 302.04715508 6.60096741 305.98906708 C6.61287126 309.59641052 6.60636264 313.20323075 6.5850572 316.81052661 C6.57845983 318.73623692 6.59154529 320.66198344 6.60528612 322.58765602 C6.59485513 323.73011473 6.58442414 324.87257343 6.57367706 326.0496521 C6.57302765 327.03535376 6.57237824 328.02105541 6.57170916 329.03662682 C5.92779509 332.51121834 4.47757627 334.20478697 2.0703125 336.7421875 C-0.78293187 338.16880969 -2.76423299 338.05252618 -5.9296875 337.7421875 C-8.62959412 335.94224976 -10.471574 334.6584145 -11.9296875 331.7421875 C-12.02753638 329.96985861 -12.06069149 328.19382058 -12.06390858 326.41879559 C-12.06836642 325.28231003 -12.07282426 324.14582446 -12.07741719 322.97489995 C-12.07723283 321.71568708 -12.07704847 320.45647422 -12.07685852 319.15910339 C-12.08015634 317.81625474 -12.08388173 316.47340708 -12.088 315.1305607 C-12.09803741 311.4278179 -12.10173958 307.72509132 -12.10438931 304.02233684 C-12.10828718 300.03382035 -12.11786582 296.04531675 -12.12660217 292.05680847 C-12.14638059 282.41868029 -12.15643425 272.78055103 -12.16532996 263.14240763 C-12.16971035 258.60686818 -12.17507778 254.07132991 -12.18031883 249.5357914 C-12.19733201 234.46440339 -12.21182727 219.39301612 -12.21906757 204.32161999 C-12.22097756 200.40899339 -12.22289788 196.49636681 -12.22485352 192.58374023 C-12.22557913 191.12499344 -12.22557913 191.12499344 -12.2263194 189.63677702 C-12.23462377 173.8748542 -12.25996716 158.11300717 -12.29243419 142.35111745 C-12.32547461 126.17942099 -12.34351357 110.00776309 -12.34671181 93.83603269 C-12.34887965 84.75183337 -12.35766817 75.6677446 -12.38317299 66.58357811 C-12.40483877 58.84878726 -12.41295079 51.1141338 -12.40320621 43.37931605 C-12.39864956 39.43133083 -12.40062642 35.48362932 -12.41996765 31.53568268 C-12.43751541 27.92269593 -12.43667069 24.3102016 -12.42107036 20.69721023 C-12.41754815 18.76835322 -12.43378303 16.83949153 -12.45067483 14.91070527 C-12.44209394 13.76639647 -12.43351305 12.62208766 -12.42467213 11.44310284 C-12.42564894 10.45577496 -12.42662574 9.46844709 -12.42763215 8.45120019 C-11.78815331 4.97218643 -10.33985874 3.28141447 -7.9296875 0.7421875 C-5.24254938 -0.60138156 -2.93286975 -0.18957713 0 0 Z " fill="#000000" transform="translate(258.9296875,54.2578125)"/>
</svg>
